<svg width="200" height="25" viewBox="0 0 200 25" fill="none" xmlns="http://www.w3.org/2000/svg">
<g clip-path="url(#clip0_74_126)">
<path d="M6.18058 0.78833H0V23.8283H6.18058V0.78833Z" fill="white"/>
<path d="M17.7047 23.8283H11.708V0.78833H17.7047L34.9396 16.4023V0.78833H41.4977V24.2118H35.1284L17.7047 8.49819V23.8283Z" fill="white"/>
<path d="M53.2098 23.8283H47.0244V0.78833H70.9143V6.57072H52.7404V9.65865H70.9143V15.441H53.113L53.2098 23.8283Z" fill="white"/>
<path d="M82.5303 0.78833H76.2529V23.8283H82.5303V0.78833Z" fill="white"/>
<path d="M94.1462 23.8283H88.0576V0.78833H94.1462L111.57 16.5965V0.78833H117.562V23.8283H111.192L93.8655 8.40356L94.1462 23.8283Z" fill="white"/>
<path d="M129.178 0.78833H123.37V23.8283H129.178V0.78833Z" fill="white"/>
<path d="M135.174 0.78833H164.775V6.85959H152.787V23.8283H146.882V6.57072H135.174V0.78833Z" fill="white"/>
<path d="M176.202 0.78833H169.93V15.441H181.918V23.8283H188.196V15.6353H200V0.78833H193.723V9.55904H175.922L176.202 0.78833Z" fill="white"/>
</g>
<defs>
<clipPath id="clip0_74_126">
<rect width="200" height="23.4234" fill="white" transform="translate(0 0.78833)"/>
</clipPath>
</defs>
</svg>
